<svg xmlns="http://www.w3.org/2000/svg" xmlns:xlink="http://www.w3.org/1999/xlink" id="Layer_1" x="0" y="0" version="1.1" viewBox="0 0 240 240" style="enable-background:new 0 0 240 240" xml:space="preserve"><style type="text/css">.st0{fill:#4285f4}.st1{fill:#34a853}.st2{fill:#fbbc05}.st3{fill:#ea4335}</style><g><path d="M210.29,161.94c0-7.9-0.7-15.4-1.9-22.7h-113v45.1h64.7c-2.9,14.8-11.4,27.3-24,35.8v30h38.6 C197.29,229.24,210.29,198.44,210.29,161.94z" class="st0" transform="matrix(1, 0, 0, 1, 27.009001, -39.238998)"/><path d="M95.39,279.24c32.4,0,59.5-10.8,79.3-29.1l-38.6-30c-10.8,7.2-24.5,11.6-40.7,11.6 c-31.3,0-57.8-21.1-67.3-49.6h-39.8v30.9C7.99,252.24,48.49,279.24,95.39,279.24z" class="st1" transform="matrix(1, 0, 0, 1, 27.009001, -39.238998)"/><path d="M28.09,182.14c-2.5-7.2-3.8-14.9-3.8-22.9c0-8,1.4-15.7,3.8-22.9v-30.9h-39.8c-8.2,16.2-12.9,34.4-12.9,53.8 c0,19.4,4.7,37.6,12.9,53.8L28.09,182.14z" class="st2" transform="matrix(1, 0, 0, 1, 27.009001, -39.238998)"/><path d="M95.39,86.74c17.7,0,33.5,6.1,46,18l34.2-34.2c-20.7-19.4-47.8-31.3-80.2-31.3c-46.9,0-87.4,27-107.1,66.2 l39.8,30.9C37.59,107.84,64.09,86.74,95.39,86.74z" class="st3" transform="matrix(1, 0, 0, 1, 27.009001, -39.238998)"/></g></svg>